<svg width="249" height="355" viewBox="0 0 249 355" fill="none" xmlns="http://www.w3.org/2000/svg">
<path d="M124.501 35.4495C158.826 35.4495 213.428 60.2641 213.428 126.732C213.428 165.017 182.838 209.506 124.501 256.477C66.1628 209.506 35.5715 164.84 35.5715 126.732C35.5715 60.2641 90.1735 35.4495 124.501 35.4495ZM124.501 0C66.3407 0 0 43.603 0 126.732C0 182.034 41.4408 240.348 124.501 301.321C207.558 240.348 249 182.034 249 126.732C249 43.603 182.659 0 124.501 0Z" fill="#69BC8A"/>
<path d="M124.501 88.6234C104.936 88.6234 88.9284 104.576 88.9284 124.073C88.9284 143.57 104.936 159.523 124.501 159.523C133.934 159.523 142.983 155.788 149.653 149.14C156.324 142.492 160.07 133.475 160.07 124.073C160.07 114.671 156.324 105.655 149.653 99.0065C142.983 92.3585 133.934 88.6234 124.501 88.6234ZM0 319.045H249V354.495H0V319.045Z" fill="#69BC8A"/>
</svg>
